<?xml version="1.0" standalone="no"?><!DOCTYPE svg PUBLIC "-//W3C//DTD SVG 1.1//EN" "http://www.w3.org/Graphics/SVG/1.1/DTD/svg11.dtd"><svg t="1652664450710" class="icon" viewBox="0 0 1179 1024" version="1.1" xmlns="http://www.w3.org/2000/svg" p-id="4198" xmlns:xlink="http://www.w3.org/1999/xlink" width="230.2734375" height="200"><defs><style type="text/css">@font-face { font-family: feedback-iconfont; src: url("//at.alicdn.com/t/font_1031158_u69w8yhxdu.woff2?t=1630033759944") format("woff2"), url("//at.alicdn.com/t/font_1031158_u69w8yhxdu.woff?t=1630033759944") format("woff"), url("//at.alicdn.com/t/font_1031158_u69w8yhxdu.ttf?t=1630033759944") format("truetype"); }
</style></defs><path d="M1179.044103 982.340442H0v39.30147h1179.044103v-39.30147z" fill="#e6e6e6" p-id="4199"></path><path d="M746.924439 687.579416L196.507351 686.793387l0.196507-39.301471 510.722604 0.78603-0.589522-491.268376h39.30147l0.786029 530.569846z" fill="#e6e6e6" p-id="4200"></path><path d="M708.998521 39.301667a28.100551 28.100551 0 0 1 19.650735 8.253308l382.992826 382.599812a28.297058 28.297058 0 0 1 0 39.30147L597.382346 984.502023l-259.979225-4.912684L67.402021 709.391732a28.297058 28.297058 0 0 1 0-39.30147L688.954771 47.554975a28.100551 28.100551 0 0 1 19.650735-8.253308m0-39.30147a67.402021 67.402021 0 0 0-47.751286 19.650735L39.30147 641.596696a67.598529 67.598529 0 0 0 0 95.69908l281.595033 281.202018 292.402938 5.502206L1139.742633 497.949823a67.598529 67.598529 0 0 0 0-95.69908L756.946314 19.650932a67.402021 67.402021 0 0 0-47.751286-19.650735z" fill="#e6e6e6" p-id="4201"></path></svg>