<?xml version="1.0" standalone="no"?><!DOCTYPE svg PUBLIC "-//W3C//DTD SVG 1.1//EN" "http://www.w3.org/Graphics/SVG/1.1/DTD/svg11.dtd"><svg t="1652342979073" class="icon" viewBox="0 0 1024 1024" version="1.1" xmlns="http://www.w3.org/2000/svg" p-id="11694" xmlns:xlink="http://www.w3.org/1999/xlink" width="200" height="200"><defs><style type="text/css">@font-face { font-family: feedback-iconfont; src: url("//at.alicdn.com/t/font_1031158_u69w8yhxdu.woff2?t=1630033759944") format("woff2"), url("//at.alicdn.com/t/font_1031158_u69w8yhxdu.woff?t=1630033759944") format("woff"), url("//at.alicdn.com/t/font_1031158_u69w8yhxdu.ttf?t=1630033759944") format("truetype"); }
</style></defs><path d="M1023.5 283.194c0-10.124-3.654-19.315-9.521-26.674L882.268 36.385c-0.017-0.027-0.043-0.04-0.057-0.065-7.789-16.316-22.908-27.677-40.326-30.98-1.24-0.644-2.586-1.095-4.081-1.095L192.519 4.245c-21.658 0-41.419 12.58-50.72 32.074-0.016 0.025-0.043 0.038-0.057 0.065L10.052 256.484c-5.886 7.366-9.552 16.571-9.552 26.71l0 217.822c0 0.136 0.071 0.25 0.076 0.383-0.005 0.134-0.076 0.245-0.076 0.383 0 51.563 27.128 96.392 69.8 119l0 355.913c0 23.743 19.314 43.06 43.058 43.06L912.69 1019.755c23.743 0 43.058-19.317 43.058-43.06L955.748 620.779c42.666-22.612 67.752-67.438 67.752-118.997 0-0.138-0.07-0.248-0.076-0.383 0.006-0.133 0.076-0.247 0.076-0.383L1023.5 283.194zM192.519 22.28l638.969 0c14.951 0 28.613 8.811 34.806 22.431 0.055 0.12 0.187 0.165 0.244 0.283 0.096 0.188 0.093 0.397 0.204 0.581l116.742 194.868c-1.023-0.073-1.999-0.308-3.042-0.308L43.558 240.135c-1.038 0-2.012 0.234-3.032 0.307L157.267 45.575c0.109-0.183 0.108-0.392 0.202-0.581 0.057-0.119 0.19-0.163 0.245-0.283C163.906 31.09 177.562 22.28 192.519 22.28zM634.896 1001.717 389.112 1001.717 389.112 787.894c0-13.793 11.229-25.023 25.024-25.023l195.735 0c13.798 0 25.026 11.229 25.026 25.023L634.897 1001.717zM937.713 976.695c0 13.795-11.226 25.022-25.022 25.022L648.852 1001.717 648.852 787.894c0-23.743-15.236-43.057-38.982-43.057L414.136 744.837c-23.744 0-38.979 19.314-38.979 43.057l0 213.823L109.28 1001.717c-13.796 0-25.024-11.228-25.024-25.022L84.256 628.604c14.029 4.968 35.17 7.812 50.879 7.812 57.299 0 106.218-36.04 125.626-86.589 19.402 50.55 68.319 86.589 125.619 86.589 57.298 0 106.218-36.04 125.623-86.589 19.406 50.55 68.321 86.589 125.619 86.589 57.298 0 106.218-36.04 125.625-86.589 19.405 50.55 68.323 86.589 125.619 86.589 15.714 0 34.819-2.846 48.848-7.816L937.714 976.695zM888.865 618.381c-64.291 0-116.599-52.309-116.599-116.599 0-4.98-4.04-9.018-9.018-9.018-4.978 0-9.016 4.038-9.016 9.018 0 64.291-52.316 116.599-116.61 116.599-64.292 0-116.601-52.309-116.601-116.599 0-4.98-4.038-9.018-9.018-9.018-4.976 0-9.016 4.038-9.016 9.018 0 64.291-52.316 116.599-116.607 116.599-64.295 0-116.602-52.309-116.602-116.599 0-4.98-4.038-9.018-9.016-9.018-4.98 0-9.019 4.038-9.019 9.018 0 64.291-52.315 116.599-116.607 116.599S18.534 566.072 18.534 501.782c0-0.138-0.07-0.248-0.076-0.383 0.006-0.133 0.076-0.247 0.076-0.383L18.534 283.194c0-13.796 11.228-25.024 25.024-25.024l936.884 0c13.796 0 25.023 11.228 25.023 25.024l0 217.822c0 0.136 0.073 0.25 0.079 0.383-0.006 0.134-0.079 0.245-0.079 0.383C1005.464 566.072 953.157 618.381 888.865 618.381z" p-id="11695" fill="#ffffff"></path></svg>